Coordinates
version=1
nRows=26
nColumns=24
inDegrees=yes

Units are S.I. units (second, meters, Newtons, ...)
Angles are in degrees.

endheader
time	pelvis_tilt	pelvis_list	pelvis_rotation	pelvis_tx	pelvis_ty	pelvis_tz	hip_flexion_r	hip_adduction_r	hip_rotation_r	knee_angle_r	ankle_angle_r	subtalar_angle_r	mtp_angle_r	hip_flexion_l	hip_adduction_l	hip_rotation_l	knee_angle_l	ankle_angle_l	subtalar_angle_l	mtp_angle_l	lumbar_extension	lumbar_bending	lumbar_rotation
      1.19500000	      7.33921149	     -0.57469744	      2.33897254	     -0.26124165	      0.92104826	      0.04279436	     20.65379038	     -1.12139732	     -9.90257669	    -33.01365208	     17.82337561	     -6.45919140	     33.52655882	    -20.06906450	      2.62881348	     -2.58827956	     -2.05316135	     16.72645853	      3.84547297	     26.92121675	    -19.11765652	     -1.20120557	     -7.10559079
      1.20000000	      7.33228481	     -0.60648336	      2.62348930	     -0.25441601	      0.92049597	      0.04275296	     20.44029141	     -1.10020464	    -10.30421882	    -30.60254356	     17.78487378	     -5.84925898	     33.69696620	    -20.54896152	      2.46038359	     -2.68757288	     -1.99384894	     16.86309119	      4.30528503	     27.19527561	    -19.13307729	     -1.11068228	     -7.39452652
      1.20500000	      7.38789558	     -0.63454371	      2.88236602	     -0.24750321	      0.91999143	      0.04275733	     20.11469659	     -1.06245595	    -10.71285134	    -28.15914487	     17.73323296	     -5.23017335	     33.96508955	    -21.09752949	      2.29845003	     -2.88251535	     -1.93987843	     16.87587519	      4.80351906	     27.55376337	    -19.20902086	     -1.02948552	     -7.61879311
      1.21000000	      7.37312138	     -0.64652165	      3.17605304	     -0.24058358	      0.91932972	      0.04275734	     19.84203493	     -1.04020691	    -11.11479428	    -25.73349435	     17.63207080	     -4.60498535	     34.19246913	    -21.53965790	      2.13357873	     -2.95500415	     -1.94587344	     17.03912732	      5.27482746	     27.85743203	    -19.20702691	     -0.96242958	     -7.90061123
      1.21500000	      7.47596624	     -0.68353989	      3.37017660	     -0.23353257	      0.91877329	      0.04291229	     19.40675212	     -0.93821444	    -11.45002476	    -23.28917419	     17.45118162	     -4.00499224	     34.91699997	    -22.13205159	      1.97212833	     -3.25473468	     -1.92270542	     17.03599496	      5.72429285	     28.60851786	    -19.32062361	     -0.89273647	     -8.03982834
      1.22000000	      7.49038787	     -0.64308765	      3.67865267	     -0.22651147	      0.91807319	      0.04293676	     19.05701760	     -0.95937240	    -11.88815200	    -20.93669415	     17.26888450	     -3.32979413	     35.23952800	    -22.58555005	      1.84035412	     -3.29027577	     -1.97427025	     17.08841121	      6.18586965	     28.94620630	    -19.34596976	     -0.88068910	     -8.34085790
      1.22500000	      7.47201245	     -0.61488955	      3.98400689	     -0.21942216	      0.91727128	      0.04302889	     18.72410375	     -0.94384468	    -12.27419791	    -18.63373522	     17.09316309	     -2.78003599	     35.45377062	    -22.97478844	      1.68812553	     -3.33736548	     -2.09370283	     17.24525298	      6.63658289	     29.20809025	    -19.32655924	     -0.86379404	     -8.65276035
      1.23000000	      7.54994870	     -0.59422604	      4.24959419	     -0.21221184	      0.91656705	      0.04316832	     18.26684384	     -0.89778998	    -12.65499303	    -16.39404589	     16.85912411	     -2.17474238	     35.75748252	    -23.48116449	      1.53335093	     -3.47488797	     -2.20286022	     17.32078079	      7.11185157	     29.53810917	    -19.40179421	     -0.84087078	     -8.89415613
      1.23500000	      7.67056127	     -0.54557162	      4.48095652	     -0.20497031	      0.91587891	      0.04340851	     17.77192279	     -0.85654018	    -12.99046529	    -14.27748336	     16.56273758	     -1.61602344	     36.22595489	    -24.02194854	      1.40674174	     -3.65252105	     -2.34154600	     17.33540697	      7.57559419	     30.00991854	    -19.52610776	     -0.86299381	     -9.09033860
      1.24000000	      7.68913210	     -0.51877296	      4.76379364	     -0.19763674	      0.91502194	      0.04361132	     17.37802279	     -0.79805064	    -13.29799144	    -12.28102665	     16.28644471	     -1.24862413	     36.56575097	    -24.43489450	      1.23272246	     -3.68455395	     -2.51396922	     17.44142859	      8.00317958	     30.41168014	    -19.52393087	     -0.85283281	     -9.35711324
      1.24500000	      7.81903359	     -0.47213381	      4.98435654	     -0.19025518	      0.91429505	      0.04391075	     16.88759712	     -0.73595456	    -13.57724360	    -10.46167079	     15.96039797	     -0.83127031	     37.04941667	    -24.95694133	      1.08874660	     -3.84119877	     -2.72203134	     17.43800776	      8.43352735	     30.96665775	    -19.64384004	     -0.87522968	     -9.51603768
      1.25000000	      7.88352492	     -0.48793284	      5.20080240	     -0.18271137	      0.91344412	      0.04421941	     16.47662560	     -0.60586307	    -13.82499363	     -8.80633316	     15.60822803	     -0.56472401	     37.78593954	    -25.41446399	      0.88159309	     -3.97513218	     -2.92159542	     17.42195727	      8.80533555	     31.86254508	    -19.66549848	     -0.83397679	     -9.64227390
      1.25500000	      7.98161757	     -0.43079331	      5.44818597	     -0.17526569	      0.91265345	      0.04453269	     16.06303109	     -0.55384070	    -14.00063049	     -7.37967256	     15.32947513	     -0.47180994	     38.04704795	    -25.85150128	      0.71843078	     -3.98732160	     -3.22806999	     17.45456674	      9.17477427	     32.33716676	    -19.74652944	     -0.86294758	     -9.84232499
      1.26000000	      8.07788386	     -0.41436734	      5.67287696	     -0.16770195	      0.91185968	      0.04488291	     15.67865161	     -0.45556263	    -14.14793909	     -6.16497221	     15.06488784	     -0.43355554	     38.28939116	    -26.28053954	      0.51530185	     -4.04757042	     -3.55119963	     17.46449193	      9.56495711	     32.89401353	    -19.80909118	     -0.85420674	     -9.99563508
      1.26500000	      8.19166852	     -0.42752367	      5.88965617	     -0.16006614	      0.91109365	      0.04524117	     15.30495768	     -0.32391466	    -14.25687067	     -5.16903359	     14.83197197	     -0.50598991	     38.50694645	    -26.70948597	      0.27684974	     -4.10218441	     -3.90956171	     17.44455879	      9.93368504	     33.56103090	    -19.87966328	     -0.81132642	    -10.10847245
      1.27000000	      8.21155271	     -0.43060016	      6.15367727	     -0.15244526	      0.91024467	      0.04552905	     15.07846396	     -0.23432496	    -14.35649416	     -4.43541531	     14.64205841	     -0.72460325	     38.52754596	    -26.97626505	      0.02894308	     -3.99847060	     -4.37759698	     17.47291679	     10.21503018	     33.86866843	    -19.84989307	     -0.77194563	    -10.26225940
      1.27500000	      8.44337551	     -0.51953239	      6.29823197	     -0.14460432	      0.90965147	      0.04595210	     14.63238965	      0.00150207	    -14.36220517	     -3.85933201	     14.45805178	     -0.93205404	     38.69582266	    -27.51912604	     -0.27684415	     -4.21449216	     -4.76943070	     17.37131543	     10.64896719	     34.89527264	    -20.02052059	     -0.64771836	    -10.24994978
      1.28000000	      8.46919038	     -0.56378705	      6.58533715	     -0.13688146	      0.90886255	      0.04619506	     14.46236858	      0.11697277	    -14.41149076	     -3.57274833	     14.35773339	     -1.28359930	     38.67854217	    -27.72621740	     -0.59043367	     -4.03692895	     -5.35159470	     17.40006312	     10.87632311	     35.20423744	    -19.98136011	     -0.55110020	    -10.43986797
      1.28500000	      8.65741841	     -0.67843246	      6.74707468	     -0.12896031	      0.90827386	      0.04657126	     14.13715893	      0.35694037	    -14.37408142	     -3.44956221	     14.22614729	     -1.66403866	     38.85887681	    -28.13866395	     -0.93979240	     -4.18262665	     -5.87732091	     17.10231331	     11.20250651	     37.68255764	    -20.09192144	     -0.39171618	    -10.39754804
      1.29000000	      8.77977409	     -0.78654747	      7.00549472	     -0.12108094	      0.90766049	      0.04680728	     13.90046351	      0.55619025	    -14.34858911	     -3.51532831	     14.12217166	     -2.19367539	     38.78682467	    -28.40833007	     -1.32150282	     -4.04788393	     -6.53077811	     17.01563207	     11.38974123	     37.93546265	    -20.13384518	     -0.21404190	    -10.49502622
      1.29500000	      8.97261744	     -0.96255681	      7.12231894	     -0.11305667	      0.90710496	      0.04723816	     13.64032102	      0.86966136	    -14.13800649	     -3.78565182	     14.02793134	     -2.84516281	     38.68203943	    -28.75993394	     -1.72440464	     -4.21816784	     -7.18962675	     16.82068903	     11.78995783	     39.07099846	    -20.22846736	      0.00410248	    -10.38208214
      1.30000000	      9.09892009	     -1.10718641	      7.32510642	     -0.10509280	      0.90653138	      0.04753725	     13.47139215	      1.11414047	    -13.99109171	     -4.21983887	     13.89575069	     -3.50569210	     38.55494402	    -28.95644832	     -2.13094310	     -4.16341372	     -7.97157719	     16.55763360	     11.98110273	     40.71267759	    -20.26156251	      0.20997297	    -10.39284187
      1.30500000	      9.16935993	     -1.26281492	      7.51831043	     -0.09709115	      0.90591661	      0.04784462	     13.40149562	      1.35753118	    -13.82795238	     -4.82899310	     13.75991728	     -4.10548987	     38.44417042	    -29.03145748	     -2.54313866	     -4.09817350	     -8.86899261	     16.30784790	     12.17593529	     42.15699988	    -20.22439157	      0.41973958	    -10.39840468
      1.31000000	      9.24764119	     -1.44473591	      7.68882158	     -0.08907232	      0.90532884	      0.04817843	     13.34432027	      1.63579234	    -13.61382584	     -5.54634781	     13.54266254	     -4.76072363	     38.33906400	    -29.06578721	     -2.97462528	     -4.05147847	     -9.85292559	     16.04789012	     12.34756743	     43.51672110	    -20.19248730	      0.65602058	    -10.38768963
      1.31500000	      9.27814774	     -1.62668689	      7.85392276	     -0.08105576	      0.90471513	      0.04853087	     13.36142359	      1.91084719	    -13.36117176	     -6.36697225	     13.29304068	     -5.49268911	     38.25241336	    -28.98984300	     -3.40398561	     -3.93267843	    -10.93393801	     15.72062950	     12.54424657	     44.91844936	    -20.10762290	      0.88407453	    -10.32923210
      1.32000000	      9.28519049	     -1.83478120	      7.98840026	     -0.07303419	      0.90409694	      0.04891929	     13.42798198	      2.21375733	    -13.05685852	     -7.26820626	     12.93026810	     -6.18291280	     38.20547573	    -28.82568831	     -3.84217067	     -3.86636419	    -12.12297527	     15.34351994	     12.64325466	     46.55384761	    -19.99332741	      1.13172094	    -10.27199043
